<svg width="15" height="16" viewBox="0 0 15 16" fill="none" xmlns="http://www.w3.org/2000/svg">
<path d="M5.83333 3V4.66667H1.66667V13.8333H10.8333V9.66667H12.5V14.6667C12.5 14.8877 12.4122 15.0996 12.2559 15.2559C12.0996 15.4122 11.8877 15.5 11.6667 15.5H0.833333C0.61232 15.5 0.400358 15.4122 0.244078 15.2559C0.0877973 15.0996 0 14.8877 0 14.6667V3.83333C0 3.61232 0.0877973 3.40036 0.244078 3.24408C0.400358 3.0878 0.61232 3 0.833333 3H5.83333ZM15 0.5V7.16667H13.3333V3.34417L6.83917 9.83917L5.66083 8.66083L12.1542 2.16667H8.33333V0.5H15Z" fill="#2B5DFF"/>
</svg>
