<svg width="17" height="16" viewBox="0 0 17 16" fill="none" xmlns="http://www.w3.org/2000/svg">
<path fill-rule="evenodd" clip-rule="evenodd" d="M15.203 8.15154C15.203 7.67881 15.1585 7.22427 15.076 6.7879H8.5V9.36669H12.2577C12.0959 10.2 11.6039 10.9061 10.8644 11.3788V13.0515H13.121C14.4413 11.8909 15.203 10.1818 15.203 8.15154Z" fill="#4285F4"/>
<path fill-rule="evenodd" clip-rule="evenodd" d="M8.50003 14.6667C10.3852 14.6667 11.9658 14.0697 13.121 13.0515L10.8645 11.3788C10.2392 11.7788 9.43946 12.0151 8.50003 12.0151C6.68147 12.0151 5.1422 10.8424 4.59314 9.26666H2.26044V10.9939C3.40933 13.1727 5.7706 14.6667 8.50003 14.6667Z" fill="#34A853"/>
<path fill-rule="evenodd" clip-rule="evenodd" d="M4.59312 9.26668C4.45348 8.86668 4.37414 8.43941 4.37414 8.00001C4.37414 7.56062 4.45348 7.13335 4.59312 6.73335V5.00607H2.26042C1.78753 5.90607 1.51776 6.92425 1.51776 8.00001C1.51776 9.07577 1.78753 10.094 2.26042 10.994L4.59312 9.26668Z" fill="#FBBC05"/>
<path fill-rule="evenodd" clip-rule="evenodd" d="M8.50003 3.98486C9.52515 3.98486 10.4455 4.32122 11.1692 4.98183L13.1718 3.06971C11.9626 1.99395 10.3821 1.33334 8.50003 1.33334C5.7706 1.33334 3.40933 2.82728 2.26044 5.00607L4.59314 6.73334C5.1422 5.15759 6.68147 3.98486 8.50003 3.98486Z" fill="#EA4335"/>
</svg>
