<svg width="104" height="26" viewBox="0 0 104 26" fill="none" xmlns="http://www.w3.org/2000/svg">
<path d="M1.91761 21V3.54545H4.55114V18.733H12.4602V21H1.91761ZM15.2599 21V7.90909H17.8082V21H15.2599ZM16.5469 5.8892C16.1037 5.8892 15.723 5.74148 15.4048 5.44602C15.0923 5.14489 14.9361 4.78693 14.9361 4.37216C14.9361 3.9517 15.0923 3.59375 15.4048 3.29829C15.723 2.99716 16.1037 2.84659 16.5469 2.84659C16.9901 2.84659 17.3679 2.99716 17.6804 3.29829C17.9986 3.59375 18.1577 3.9517 18.1577 4.37216C18.1577 4.78693 17.9986 5.14489 17.6804 5.44602C17.3679 5.74148 16.9901 5.8892 16.5469 5.8892ZM23.7848 13.2273V21H21.2365V7.90909H23.6825V10.0398H23.8445C24.1456 9.34659 24.6172 8.78977 25.2592 8.36932C25.907 7.94886 26.7223 7.73864 27.7053 7.73864C28.5973 7.73864 29.3786 7.92614 30.049 8.30114C30.7195 8.67045 31.2393 9.22159 31.6087 9.95455C31.978 10.6875 32.1626 11.5937 32.1626 12.6733V21H29.6143V12.9801C29.6143 12.0312 29.3672 11.2898 28.8729 10.7557C28.3786 10.2159 27.6996 9.94602 26.8359 9.94602C26.245 9.94602 25.7195 10.0739 25.2592 10.3295C24.8047 10.5852 24.4439 10.9602 24.1768 11.4545C23.9155 11.9432 23.7848 12.5341 23.7848 13.2273ZM37.924 16.5597L37.907 13.4489H38.3501L43.5661 7.90909H46.6172L40.6683 14.2159H40.2678L37.924 16.5597ZM35.5803 21V3.54545H38.1286V21H35.5803ZM43.8473 21L39.1598 14.7784L40.9155 12.9972L46.9751 21H43.8473ZM60.3686 3.54545H63.0107V15.0256C63.0107 16.2472 62.7237 17.3295 62.1499 18.2727C61.576 19.2102 60.7692 19.9489 59.7294 20.4886C58.6896 21.0227 57.4709 21.2898 56.0732 21.2898C54.6811 21.2898 53.4652 21.0227 52.4254 20.4886C51.3857 19.9489 50.5788 19.2102 50.005 18.2727C49.4311 17.3295 49.1442 16.2472 49.1442 15.0256V3.54545H51.7777V14.8125C51.7777 15.6023 51.951 16.304 52.2976 16.9176C52.6499 17.5312 53.147 18.0142 53.7891 18.3665C54.4311 18.7131 55.1925 18.8864 56.0732 18.8864C56.9595 18.8864 57.7237 18.7131 58.3658 18.3665C59.0135 18.0142 59.5078 17.5312 59.8487 16.9176C60.1953 16.304 60.3686 15.6023 60.3686 14.8125V3.54545ZM66.6349 25.9091V7.90909H69.1236V10.0312H69.3366C69.4844 9.75852 69.6974 9.44318 69.9759 9.08523C70.2543 8.72727 70.6406 8.41477 71.1349 8.14773C71.6293 7.875 72.2827 7.73864 73.0952 7.73864C74.152 7.73864 75.0952 8.00568 75.9247 8.53977C76.7543 9.07386 77.4048 9.84375 77.8764 10.8494C78.3537 11.8551 78.5923 13.0653 78.5923 14.4801C78.5923 15.8949 78.3565 17.108 77.8849 18.1193C77.4134 19.125 76.7656 19.9006 75.9418 20.446C75.1179 20.9858 74.1776 21.2557 73.1207 21.2557C72.3253 21.2557 71.6747 21.1222 71.169 20.8551C70.669 20.5881 70.277 20.2756 69.9929 19.9176C69.7088 19.5597 69.4901 19.2415 69.3366 18.9631H69.1832V25.9091H66.6349ZM69.1321 14.4545C69.1321 15.375 69.2656 16.1818 69.5327 16.875C69.7997 17.5682 70.1861 18.1108 70.6918 18.5028C71.1974 18.8892 71.8168 19.0824 72.5497 19.0824C73.3111 19.0824 73.9474 18.8807 74.4588 18.4773C74.9702 18.0682 75.3565 17.5142 75.6179 16.8153C75.8849 16.1165 76.0185 15.3295 76.0185 14.4545C76.0185 13.5909 75.8878 12.8153 75.6264 12.1278C75.3707 11.4403 74.9844 10.8977 74.4673 10.5C73.956 10.1023 73.3168 9.90341 72.5497 9.90341C71.8111 9.90341 71.1861 10.0937 70.6747 10.4744C70.169 10.8551 69.7855 11.3864 69.5241 12.0682C69.2628 12.75 69.1321 13.5455 69.1321 14.4545Z" fill="#2B5DFF"/>
<g clip-path="url(#clip0_47_3)">
<path d="M90 6V8H85V19H96V14H98V20C98 20.2652 97.8946 20.5196 97.7071 20.7071C97.5196 20.8946 97.2652 21 97 21H84C83.7348 21 83.4804 20.8946 83.2929 20.7071C83.1054 20.5196 83 20.2652 83 20V7C83 6.73478 83.1054 6.48043 83.2929 6.29289C83.4804 6.10536 83.7348 6 84 6H90ZM101 3V11H99V6.413L91.207 14.207L89.793 12.793L97.585 5H93V3H101Z" fill="#2B5DFF"/>
</g>
<defs>
<clipPath id="clip0_47_3">
<rect width="24" height="24" fill="white" transform="translate(80)"/>
</clipPath>
</defs>
</svg>
