<svg width="15" height="15" viewBox="0 0 15 15" fill="none" xmlns="http://www.w3.org/2000/svg">
<path d="M1.87494 6.08581C1.87339 6.18083 1.90076 6.27408 1.95341 6.35319C2.00607 6.4323 2.08153 6.49354 2.16978 6.52878L6.67025 8.32925L8.47072 12.8302C8.5055 12.9172 8.56559 12.9919 8.64321 13.0444C8.72084 13.097 8.81244 13.1251 8.90619 13.125H8.91369C9.00863 13.1235 9.10087 13.0932 9.17822 13.0382C9.25556 12.9831 9.31435 12.9058 9.34682 12.8166L13.0968 2.50409C13.1275 2.4202 13.1336 2.32928 13.1144 2.24204C13.0951 2.15481 13.0513 2.07488 12.9882 2.01169C12.925 1.9485 12.8452 1.90466 12.7579 1.88535C12.6707 1.86604 12.5798 1.87205 12.4959 1.90269L2.18338 5.65269C2.09411 5.68523 2.01683 5.74411 1.96175 5.82153C1.90668 5.89896 1.87641 5.99128 1.87494 6.08628V6.08581Z" fill="white"/>
</svg>
