<svg width="19" height="21" viewBox="0 0 19 21" fill="none" xmlns="http://www.w3.org/2000/svg">
<g clip-path="url(#clip0_18_354)" filter="url(#filter0_d_18_354)">
<path d="M5.33332 8.75H6.49999V11.6667H13.5V2.33333H6.49999V5.25H5.33332V1.75C5.33332 1.59529 5.39478 1.44692 5.50418 1.33752C5.61357 1.22812 5.76195 1.16667 5.91666 1.16667H14.0833C14.238 1.16667 14.3864 1.22812 14.4958 1.33752C14.6052 1.44692 14.6667 1.59529 14.6667 1.75V12.25C14.6667 12.4047 14.6052 12.5531 14.4958 12.6625C14.3864 12.7719 14.238 12.8333 14.0833 12.8333H5.91666C5.76195 12.8333 5.61357 12.7719 5.50418 12.6625C5.39478 12.5531 5.33332 12.4047 5.33332 12.25V8.75ZM8.83332 6.41667V4.66667L11.75 7L8.83332 9.33333V7.58333H4.16666V6.41667H8.83332Z" fill="#585858"/>
</g>
<defs>
<filter id="filter0_d_18_354" x="-1" y="0" width="22" height="22" filterUnits="userSpaceOnUse" color-interpolation-filters="sRGB">
<feFlood flood-opacity="0" result="BackgroundImageFix"/>
<feColorMatrix in="SourceAlpha" type="matrix" values="0 0 0 0 0 0 0 0 0 0 0 0 0 0 0 0 0 0 127 0" result="hardAlpha"/>
<feOffset dy="4"/>
<feGaussianBlur stdDeviation="2"/>
<feComposite in2="hardAlpha" operator="out"/>
<feColorMatrix type="matrix" values="0 0 0 0 0 0 0 0 0 0 0 0 0 0 0 0 0 0 0.25 0"/>
<feBlend mode="normal" in2="BackgroundImageFix" result="effect1_dropShadow_18_354"/>
<feBlend mode="normal" in="SourceGraphic" in2="effect1_dropShadow_18_354" result="shape"/>
</filter>
<clipPath id="clip0_18_354">
<rect width="14" height="14" fill="white" transform="translate(3)"/>
</clipPath>
</defs>
</svg>
