<svg width="17" height="17" viewBox="0 0 17 17" fill="none" xmlns="http://www.w3.org/2000/svg">
<g clip-path="url(#clip0_4_118)">
<path d="M8.50002 15.5833C4.5879 15.5833 1.41669 12.4121 1.41669 8.5C1.41669 4.58788 4.5879 1.41667 8.50002 1.41667C12.4121 1.41667 15.5834 4.58788 15.5834 8.5C15.5834 12.4121 12.4121 15.5833 8.50002 15.5833ZM8.50002 14.1667C10.0029 14.1667 11.4443 13.5696 12.507 12.5069C13.5697 11.4442 14.1667 10.0029 14.1667 8.5C14.1667 6.99711 13.5697 5.55577 12.507 4.49306C11.4443 3.43036 10.0029 2.83333 8.50002 2.83333C6.99713 2.83333 5.55579 3.43036 4.49308 4.49306C3.43038 5.55577 2.83335 6.99711 2.83335 8.5C2.83335 10.0029 3.43038 11.4442 4.49308 12.5069C5.55579 13.5696 6.99713 14.1667 8.50002 14.1667ZM4.95835 9.20833H11.3334V10.625H8.50002V12.75L4.95835 9.20833ZM8.50002 6.375V4.25L12.0417 7.79167H5.66669V6.375H8.50002Z" fill="#2B5DFF"/>
</g>
<defs>
<clipPath id="clip0_4_118">
<rect width="17" height="17" fill="white"/>
</clipPath>
</defs>
</svg>
